<svg xmlns="http://www.w3.org/2000/svg" version="1.1" xmlns:xlink="http://www.w3.org/1999/xlink" xmlns:svgjs="http://svgjs.dev/svgjs" width="1500" height="575" viewBox="0 0 1500 575"><g transform="matrix(1,0,0,1,-0.9090909090909918,-1.5256519152537749)"><svg viewBox="0 0 396 152" data-background-color="#ffffff" preserveAspectRatio="xMidYMid meet" height="575" width="1500" xmlns="http://www.w3.org/2000/svg" xmlns:xlink="http://www.w3.org/1999/xlink"><g id="tight-bounds" transform="matrix(1,0,0,1,0.2400000000000091,0.40330276716274227)"><svg viewBox="0 0 395.52 151.198681741868" height="151.198681741868" width="395.52"><g><svg viewBox="0 0 395.52 151.198681741868" height="151.198681741868" width="395.52"><g><svg viewBox="0 0 395.52 151.198681741868" height="151.198681741868" width="395.52"><g transform="matrix(1,0,0,1,0,93.44685110674969)"><svg viewBox="0 0 395.52 57.7518306351183" height="57.7518306351183" width="395.52"><g id="textblocktransform"><svg viewBox="0 0 395.52 57.7518306351183" height="57.7518306351183" width="395.52" id="textblock"><g><svg viewBox="0 0 395.52 57.7518306351183" height="57.7518306351183" width="395.52"><g transform="matrix(1,0,0,1,0,0)"><svg width="395.52" viewBox="1.44 -33.54 235.23 34.35" height="57.7518306351183" data-palette-color="#000000"><path d="M42.26-2.15L42.26 0 29.64 0 29.64-2.15 32.3-2.34Q32.84-2.39 33.12-2.73 33.4-3.08 33.4-3.44L33.4-3.44 33.4-31.01 21.9 0 19.41 0 8.3-30.54 8.3-3.44Q8.3-3.08 8.58-2.73 8.86-2.39 9.4-2.34L9.4-2.34 12.26-2.15 12.26 0 1.44 0 1.44-2.15 4.3-2.34Q4.83-2.39 5.09-2.73 5.35-3.08 5.35-3.44L5.35-3.44 5.35-30.1Q5.35-30.47 5.09-30.82 4.83-31.18 4.3-31.2L4.3-31.2 1.44-31.4 1.44-33.54 12.65-33.54 12.65-32.2 21.7-7.64 30.76-32.06 30.76-33.54 42.26-33.54 42.26-31.4 39.55-31.2Q39.01-31.18 38.73-30.82 38.45-30.47 38.45-30.1L38.45-30.1 38.45-3.44Q38.45-3.08 38.73-2.73 39.01-2.39 39.55-2.34L39.55-2.34 42.26-2.15ZM69.28-12.01L69.28-12.01Q69.28-8.47 67.82-5.6 66.35-2.73 63.68-1.06 61.01 0.61 57.35 0.61L57.35 0.61Q53.71 0.61 51.05-1.05 48.39-2.71 46.95-5.57 45.51-8.42 45.51-12.01L45.51-12.01Q45.51-15.58 46.96-18.46 48.41-21.34 51.11-23.02 53.81-24.71 57.49-24.71L57.49-24.71Q61.23-24.71 63.86-23 66.5-21.29 67.89-18.41 69.28-15.53 69.28-12.01ZM64.08-12.06L64.08-12.06Q64.08-14.79 63.36-17.16 62.64-19.53 61.17-21 59.69-22.46 57.44-22.46L57.44-22.46Q55.12-22.46 53.65-21 52.17-19.53 51.46-17.16 50.75-14.79 50.75-12.06L50.75-12.06Q50.75-9.35 51.47-6.97 52.19-4.59 53.67-3.13 55.15-1.66 57.39-1.66L57.39-1.66Q59.69-1.66 61.17-3.13 62.64-4.59 63.36-6.96 64.08-9.33 64.08-12.06ZM87.64-3.05L87.64-3.05 87.64-1.05Q87.64-1.05 86.7-0.63 85.76-0.22 84.24 0.2 82.71 0.61 80.9 0.61L80.9 0.61Q78.1 0.61 76.81-0.72 75.53-2.05 75.53-5L75.53-5 75.53-21.61 72.33-21.61 72.33-23.24 75.75-24.85 78-30.15 80.2-30.15 80.2-24.1 87.25-24.1 87.25-21.61 80.2-21.61 80.2-7.64Q80.2-4.66 81.2-3.43 82.2-2.2 84.2-2.2L84.2-2.2Q85.66-2.2 86.65-2.62 87.64-3.05 87.64-3.05ZM113.47-12.01L113.47-12.01Q113.47-8.47 112-5.6 110.54-2.73 107.87-1.06 105.19 0.61 101.53 0.61L101.53 0.61Q97.89 0.61 95.23-1.05 92.57-2.71 91.13-5.57 89.69-8.42 89.69-12.01L89.69-12.01Q89.69-15.58 91.14-18.46 92.6-21.34 95.29-23.02 97.99-24.71 101.68-24.71L101.68-24.71Q105.41-24.71 108.05-23 110.69-21.29 112.08-18.41 113.47-15.53 113.47-12.01ZM108.27-12.06L108.27-12.06Q108.27-14.79 107.55-17.16 106.83-19.53 105.35-21 103.87-22.46 101.63-22.46L101.63-22.46Q99.31-22.46 97.83-21 96.35-19.53 95.65-17.16 94.94-14.79 94.94-12.06L94.94-12.06Q94.94-9.35 95.66-6.97 96.38-4.59 97.86-3.13 99.33-1.66 101.58-1.66L101.58-1.66Q103.87-1.66 105.35-3.13 106.83-4.59 107.55-6.96 108.27-9.33 108.27-12.06ZM134.22-23.95L134.22-18.99 132.27-18.99Q131.8-19.56 131.15-19.96 130.51-20.36 129.58-20.36L129.58-20.36Q128.38-20.36 127.13-19.53 125.87-18.7 124.57-17.26L124.57-17.26 124.57-3.2Q124.57-2.15 125.62-2.1L125.62-2.1 128.92-1.95 128.92 0 116.42 0 116.42-1.9 118.89-2.1Q119.33-2.15 119.63-2.44 119.94-2.73 119.94-3.2L119.94-3.2 119.94-20.56 116.32-20.56 116.32-22.19 122.52-24.1 124.57-24.1 124.57-19.65Q125.31-20.46 126.41-21.66 127.5-22.85 128.75-23.78 129.99-24.71 131.17-24.71L131.17-24.71Q131.95-24.71 132.85-24.46 133.75-24.22 134.22-23.95L134.22-23.95ZM167.18-2.1L167.18 0.15Q166.86 0.17 165.93 0.49 165 0.81 163.88 0.81L163.88 0.81Q161.32 0.81 159.81-0.05 158.31-0.9 157.49-2.31 156.68-3.71 156.2-5.4 155.72-7.08 155.24-8.75 154.75-10.42 153.89-11.83 153.04-13.23 151.5-14.09 149.96-14.94 147.33-14.94L147.33-14.94Q146.55-14.94 145.85-14.89 145.15-14.84 145.08-14.84L145.08-14.84 145.08-3.44Q145.08-3.08 145.34-2.73 145.59-2.39 146.13-2.34L146.13-2.34 148.77-2.15 148.77 0 136.34 0 136.34-2.15 138.93-2.34Q139.47-2.39 139.75-2.73 140.03-3.08 140.03-3.44L140.03-3.44 140.03-30.1Q140.03-30.47 139.75-30.82 139.47-31.18 138.93-31.2L138.93-31.2 136.34-31.4 136.34-33.54 149.38-33.54Q155.07-33.54 158.35-31.58 161.63-29.61 161.63-24.66L161.63-24.66Q161.63-22.05 160.46-20.37 159.29-18.7 157.42-17.75 155.55-16.8 153.43-16.31L153.43-16.31Q155.75-15.75 157.06-14.71 158.36-13.67 159-12.35 159.63-11.04 159.95-9.62 160.27-8.2 160.58-6.86 160.9-5.52 161.55-4.44 162.19-3.37 163.51-2.73 164.83-2.1 167.18-2.1L167.18-2.1ZM156.19-24.44L156.19-24.44Q156.19-27.64 154.15-29.37 152.11-31.1 147.38-31.1L147.38-31.1 145.08-31.1 145.08-17.41Q145.2-17.41 146.09-17.38 146.98-17.36 147.57-17.36L147.57-17.36Q151.75-17.36 153.97-18.9 156.19-20.43 156.19-24.44ZM189.98-5.54L189.98-2.49Q187.88-1.2 185.45-0.29 183.02 0.61 180.48 0.61L180.48 0.61Q177.45 0.61 174.8-0.74 172.15-2.1 170.52-4.86 168.88-7.62 168.88-11.79L168.88-11.79Q168.88-15.7 170.4-18.6 171.91-21.51 174.57-23.11 177.23-24.71 180.62-24.71L180.62-24.71Q185.29-24.71 187.63-21.81 189.98-18.92 189.98-14.45L189.98-14.45Q189.98-14.21 189.98-13.81 189.98-13.4 189.93-13.06L189.93-13.06 173.72-13.06Q173.72-11.16 174.12-9.27 174.52-7.37 175.47-5.83 176.43-4.3 178.04-3.37 179.65-2.44 182.07-2.44L182.07-2.44Q184.21-2.44 186.25-3.43 188.29-4.42 189.98-5.54L189.98-5.54ZM173.98-15.31L184.97-15.31 184.97-16.41Q184.97-18.87 183.79-20.56 182.6-22.24 180.11-22.24L180.11-22.24Q177.65-22.24 175.91-20.39 174.18-18.53 173.98-15.31L173.98-15.31ZM219.03-1.95L219.03 0 207.99 0 207.99-1.95 210.09-2.1Q210.53-2.15 210.83-2.44 211.14-2.73 211.14-3.2L211.14-3.2 211.14-16.21Q211.14-18.58 210.04-19.81 208.94-21.04 206.33-21.04L206.33-21.04Q204.91-21.04 203.51-20.64 202.11-20.24 200.84-19.6L200.84-19.6 200.84-3.2Q200.84-2.17 201.89-2.1L201.89-2.1 203.99-1.95 203.99 0 192.68 0 192.68-1.95 195.12-2.1Q196.17-2.17 196.17-3.2L196.17-3.2 196.17-20.56 192.68-20.56 192.68-22.19 198.79-24.1 200.84-24.1 200.84-21.61Q202.94-22.8 205.15-23.75 207.36-24.71 209.09-24.71L209.09-24.71Q212.36-24.71 214.07-22.67 215.78-20.63 215.78-16.99L215.78-16.99 215.78-3.2Q215.78-2.73 216.08-2.44 216.39-2.15 216.83-2.1L216.83-2.1 219.03-1.95ZM236.67-3.05L236.67-3.05 236.67-1.05Q236.67-1.05 235.73-0.63 234.79-0.22 233.27 0.2 231.74 0.61 229.94 0.61L229.94 0.61Q227.13 0.61 225.85-0.72 224.56-2.05 224.56-5L224.56-5 224.56-21.61 221.37-21.61 221.37-23.24 224.78-24.85 227.03-30.15 229.23-30.15 229.23-24.1 236.28-24.1 236.28-21.61 229.23-21.61 229.23-7.64Q229.23-4.66 230.23-3.43 231.23-2.2 233.23-2.2L233.23-2.2Q234.7-2.2 235.69-2.62 236.67-3.05 236.67-3.05Z" opacity="1" transform="matrix(1,0,0,1,0,0)" fill="#000000" class="wordmark-text-0" data-fill-palette-color="primary" id="text-0"></path></svg></g></svg></g></svg></g></svg></g><g transform="matrix(1,0,0,1,140.2304624558638,0)"><svg viewBox="0 0 115.05907508827235 79.8130299377335" height="79.8130299377335" width="115.05907508827235"><g><svg xmlns="http://www.w3.org/2000/svg" data-name="Layer 1" viewBox="0.9607551526286535 10.511097999919734 98.02773467934333 78.98206717273194" x="8" y="0" height="79.8130299377335" width="99.05907508827235" class="icon-icon-0" data-fill-palette-color="accent" id="icon-0"><rect x="54" y="18.77" width="27.58" height="13.71" rx="4.29" ry="4.29" fill="#000000" data-fill-palette-color="accent"></rect><path d="M88.83 43.78A6.86 6.86 0 0 0 82.6 39.78H58.08A4.09 4.09 0 0 0 54 43.85V60.1H50.17A14.53 14.53 0 0 1 38.35 54.31 14.19 14.19 0 0 1 36.64 40.6L41.89 27.79A3.87 3.87 0 0 0 43.45 20.24V17.09A3.69 3.69 0 0 0 40.4 13.45L23.89 10.55A2.51 2.51 0 0 0 20.94 13V25A2.5 2.5 0 0 0 21.79 26.88 2.48 2.48 0 0 0 23.79 27.48L30.15 26.65 22 46.1A25.32 25.32 0 0 0 2.58 51.69 3.15 3.15 0 0 0 1.44 54 3.2 3.2 0 0 0 2.37 56.41L5.43 59.47A18.2 18.2 0 0 0 1 72.61 18.39 18.39 0 0 0 18.23 89.47 18.19 18.19 0 0 0 37.28 72.65L54.52 72.9A18.16 18.16 0 0 0 90.73 72.56H93.73A5.26 5.26 0 0 0 98.52 65.13ZM19.17 78.33A7 7 0 1 1 26.17 71.33 7 7 0 0 1 19.17 78.33M72.61 78.33A7 7 0 1 1 79.61 71.33 7 7 0 0 1 72.61 78.33" fill="#000000" data-fill-palette-color="accent"></path></svg></g></svg></g><g><rect width="140.2304624558638" height="5.208119686564184" y="73.60491025116931" x="255.28953754413615" fill="#000000" data-fill-palette-color="accent"></rect><rect width="140.2304624558638" height="5.208119686564184" y="73.60491025116931" x="0" fill="#000000" data-fill-palette-color="accent"></rect><rect width="140.2304624558638" height="5.208119686564184" y="63.18867087804095" x="255.28953754413615" fill="#000000" data-fill-palette-color="accent"></rect><rect width="140.2304624558638" height="5.208119686564184" y="63.18867087804095" x="0" fill="#000000" data-fill-palette-color="accent"></rect></g></svg></g></svg></g><defs></defs></svg><rect width="395.52" height="151.198681741868" fill="none" stroke="none" visibility="hidden"></rect></g></svg></g></svg>