<svg xmlns="http://www.w3.org/2000/svg" version="1.1" xmlns:xlink="http://www.w3.org/1999/xlink" xmlns:svgjs="http://svgjs.dev/svgjs" width="128" height="128" viewBox="0 0 128 128"><g transform="matrix(0.8046875,0,0,0.8046875,11.660910550850367,22.58864749085697)"><svg viewBox="0 0 60 48" data-background-color="#ffffff" preserveAspectRatio="xMidYMid meet" height="102" width="128" xmlns="http://www.w3.org/2000/svg" xmlns:xlink="http://www.w3.org/1999/xlink"><g id="tight-bounds" transform="matrix(1,0,0,1,0.49637100000001055,0.22858862198719976)"><svg viewBox="0 0 59.00725799999999 47.5428227560256" height="47.5428227560256" width="59.00725799999999"><g><svg viewBox="0 0 59.00725799999999 47.5428227560256" height="47.5428227560256" width="59.00725799999999"><g><svg viewBox="0 0 59.00725799999999 47.5428227560256" height="47.5428227560256" width="59.00725799999999"><g><svg viewBox="0 0 59.00725799999999 47.5428227560256" height="47.5428227560256" width="59.00725799999999"><g id="textblocktransform"><svg viewBox="0 0 59.00725799999999 47.5428227560256" height="47.5428227560256" width="59.00725799999999" id="textblock"><g><svg viewBox="0 0 59.00725799999999 47.5428227560256" height="47.5428227560256" width="59.00725799999999"><g><svg viewBox="0 0 59.00725799999999 47.5428227560256" height="47.5428227560256" width="59.00725799999999"><g><svg xmlns="http://www.w3.org/2000/svg" data-name="Layer 1" viewBox="0.9607551526286535 10.511097999919734 98.02773467934333 78.98206717273194" x="0" y="0" height="47.5428227560256" width="59.00725799999999" class="icon-icon-0" data-fill-palette-color="accent" id="icon-0"><rect x="54" y="18.77" width="27.58" height="13.71" rx="4.29" ry="4.29" fill="#000000" data-fill-palette-color="accent"></rect><path d="M88.83 43.78A6.86 6.86 0 0 0 82.6 39.78H58.08A4.09 4.09 0 0 0 54 43.85V60.1H50.17A14.53 14.53 0 0 1 38.35 54.31 14.19 14.19 0 0 1 36.64 40.6L41.89 27.79A3.87 3.87 0 0 0 43.45 20.24V17.09A3.69 3.69 0 0 0 40.4 13.45L23.89 10.55A2.51 2.51 0 0 0 20.94 13V25A2.5 2.5 0 0 0 21.79 26.88 2.48 2.48 0 0 0 23.79 27.48L30.15 26.65 22 46.1A25.32 25.32 0 0 0 2.58 51.69 3.15 3.15 0 0 0 1.44 54 3.2 3.2 0 0 0 2.37 56.41L5.43 59.47A18.2 18.2 0 0 0 1 72.61 18.39 18.39 0 0 0 18.23 89.47 18.19 18.19 0 0 0 37.28 72.65L54.52 72.9A18.16 18.16 0 0 0 90.73 72.56H93.73A5.26 5.26 0 0 0 98.52 65.13ZM19.17 78.33A7 7 0 1 1 26.17 71.33 7 7 0 0 1 19.17 78.33M72.61 78.33A7 7 0 1 1 79.61 71.33 7 7 0 0 1 72.61 78.33" fill="#000000" data-fill-palette-color="accent"></path></svg></g></svg></g></svg></g></svg></g></svg></g><g></g></svg></g></svg></g><defs></defs></svg><rect width="59.00725799999999" height="47.5428227560256" fill="none" stroke="none" visibility="hidden"></rect></g></svg></g></svg>